<svg width="54" height="33" viewBox="0 0 54 33" fill="none" xmlns="http://www.w3.org/2000/svg">
<path fill-rule="evenodd" clip-rule="evenodd" d="M26.8037 28.2078C29.7135 30.8866 33.5257 32.3708 37.4807 32.3647C41.7104 32.3313 45.7554 30.6277 48.7344 27.625C51.7135 24.6223 53.3851 20.564 53.3851 16.3342C53.3851 12.1045 51.7135 8.04612 48.7344 5.04345C45.7554 2.04077 41.7104 0.33714 37.4807 0.303734C33.5259 0.297007 29.7137 1.78054 26.8037 4.45873C25.1484 5.96245 23.8257 7.79567 22.9206 9.84069C22.0154 11.8857 21.5479 14.0974 21.5479 16.3337C21.5479 18.5701 22.0154 20.7818 22.9206 22.8268C23.8257 24.8719 25.1484 26.705 26.8037 28.2087V28.2078Z" fill="#E99F2B"/>
<path fill-rule="evenodd" clip-rule="evenodd" d="M51.2955 25.2631C51.2952 25.1982 51.3078 25.1338 51.3325 25.0738C51.3572 25.0137 51.3936 24.9591 51.4396 24.9132C51.4855 24.8673 51.54 24.8309 51.6001 24.8062C51.6601 24.7815 51.7245 24.7688 51.7894 24.7691C51.8565 24.766 51.9235 24.7765 51.9865 24.7998C52.0494 24.8232 52.107 24.859 52.1558 24.9051C52.2046 24.9512 52.2436 25.0066 52.2706 25.0682C52.2975 25.1297 52.3117 25.196 52.3125 25.2631C52.3148 25.3324 52.3029 25.4015 52.2775 25.466C52.252 25.5306 52.2136 25.5891 52.1645 25.6382C52.1155 25.6872 52.0569 25.7257 51.9924 25.7511C51.9278 25.7766 51.8588 25.7885 51.7894 25.7861C51.7223 25.7854 51.656 25.7711 51.5945 25.7442C51.533 25.7173 51.4775 25.6782 51.4314 25.6294C51.3853 25.5806 51.3495 25.5231 51.3262 25.4601C51.3028 25.3972 51.2924 25.3302 51.2955 25.2631ZM51.7894 25.6771C51.8982 25.6743 52.0017 25.6297 52.0784 25.5526C52.1551 25.4755 52.1992 25.3718 52.2015 25.2631C52.1975 25.1575 52.152 25.0578 52.0748 24.9856C51.9977 24.9135 51.895 24.8749 51.7894 24.8781C51.6881 24.8804 51.5915 24.9217 51.5198 24.9934C51.448 25.0651 51.4068 25.1617 51.4045 25.2631C51.4058 25.3676 51.446 25.4678 51.5171 25.5444C51.5883 25.6209 51.6853 25.6682 51.7894 25.6771ZM51.7344 25.5121H51.6254V25.0431H51.8164C51.8555 25.0387 51.8948 25.0483 51.9274 25.0701C51.9814 25.0971 51.9815 25.1261 51.9815 25.1811C51.9815 25.2361 51.9545 25.2921 51.8995 25.2921L52.0104 25.5121H51.8724L51.8164 25.3191H51.7344V25.2351H51.8425C51.8695 25.2351 51.8695 25.2081 51.8695 25.1811C51.8695 25.1541 51.8695 25.1541 51.8425 25.1271H51.7315L51.7344 25.5121Z" fill="#E99F2B"/>
<path fill-rule="evenodd" clip-rule="evenodd" d="M31.9498 14.6399C31.8938 14.0619 31.7848 13.5119 31.6738 12.9339H21.9328C22.0496 12.3668 22.1964 11.8063 22.3728 11.2549H31.2078C31.0151 10.6749 30.7948 10.1062 30.5468 9.54886H23.0618C23.3358 8.96553 23.6385 8.39686 23.9698 7.84286H29.6108C29.2492 7.25425 28.8448 6.69304 28.4008 6.16385H25.1788C25.677 5.555 26.2198 4.98408 26.8028 4.45584C24.5034 2.37026 21.6479 0.9971 18.5832 0.503113C15.5184 0.00912568 12.3761 0.415579 9.53787 1.67307C6.69963 2.93055 4.2875 4.98497 2.59439 7.58694C0.901283 10.1889 0 13.2265 0 16.3308C0 19.4352 0.901283 22.4728 2.59439 25.0747C4.2875 27.6767 6.69963 29.7311 9.53787 30.9886C12.3761 32.2461 15.5184 32.6525 18.5832 32.1585C21.6479 31.6646 24.5034 30.2914 26.8028 28.2058C27.3777 27.6874 27.9126 27.1261 28.4028 26.5268H25.1788C24.7448 25.9805 24.3408 25.411 23.9688 24.8208H29.6098C29.9648 24.2769 30.2778 23.7066 30.5458 23.1148H23.0608C22.802 22.5669 22.5719 22.0058 22.3718 21.4339H31.2068C31.3914 20.8735 31.5473 20.3041 31.6738 19.7279C31.9165 18.6164 32.0366 17.4815 32.0318 16.3438C32.0318 15.7658 32.0048 15.1878 31.9498 14.6378V14.6399Z" fill="#BF0C24"/>
<path fill-rule="evenodd" clip-rule="evenodd" d="M51.2954 20.0604C51.2925 19.9935 51.3032 19.9267 51.3267 19.864C51.3502 19.8013 51.386 19.7439 51.4321 19.6953C51.4782 19.6467 51.5335 19.6079 51.5949 19.5811C51.6563 19.5544 51.7224 19.5401 51.7894 19.5394C51.8585 19.5369 51.9275 19.5487 51.992 19.5739C52.0564 19.5992 52.115 19.6374 52.164 19.6863C52.2131 19.7352 52.2516 19.7936 52.2771 19.8579C52.3026 19.9223 52.3146 19.9912 52.3124 20.0604C52.3125 20.1291 52.299 20.1972 52.2728 20.2607C52.2466 20.3242 52.2081 20.3819 52.1595 20.4305C52.1109 20.4791 52.0532 20.5176 51.9897 20.5438C51.9262 20.5701 51.8581 20.5835 51.7894 20.5834C51.6551 20.5777 51.5285 20.5199 51.4362 20.4222C51.344 20.3245 51.2934 20.1947 51.2954 20.0604ZM51.7894 20.4454C51.8422 20.4492 51.8954 20.4421 51.9454 20.4245C51.9954 20.4068 52.0412 20.3791 52.0801 20.343C52.1189 20.3069 52.1499 20.2631 52.171 20.2145C52.1922 20.1659 52.2031 20.1134 52.2031 20.0604C52.2031 20.0074 52.1922 19.9549 52.171 19.9063C52.1499 19.8577 52.1189 19.8139 52.0801 19.7778C52.0412 19.7417 51.9954 19.7139 51.9454 19.6963C51.8954 19.6787 51.8422 19.6716 51.7894 19.6754C51.6872 19.6754 51.5893 19.716 51.5171 19.7882C51.4449 19.8604 51.4044 19.9583 51.4044 20.0604C51.4044 20.1625 51.4449 20.2604 51.5171 20.3326C51.5893 20.4048 51.6872 20.4454 51.7894 20.4454ZM51.7344 20.2804H51.6254V19.8404H51.9254C51.9794 19.8674 51.9794 19.9244 51.9794 19.9784C51.9754 20.0021 51.9659 20.0244 51.9517 20.0437C51.9374 20.063 51.9188 20.0787 51.8974 20.0894L52.0083 20.2824H51.8704L51.8143 20.1174H51.7324V20.0334H51.7874C51.8144 20.0334 51.8434 20.0334 51.8434 20.0064C51.8704 20.0064 51.8704 19.9794 51.8704 19.9514C51.8704 19.9442 51.8675 19.9373 51.8624 19.9323C51.8574 19.9272 51.8505 19.9244 51.8434 19.9244C51.8434 19.8954 51.8144 19.9244 51.7874 19.9244H51.7324L51.7344 20.2804Z" fill="white"/>
<path fill-rule="evenodd" clip-rule="evenodd" d="M21.3817 20.967C20.9617 21.0963 20.5267 21.1703 20.0876 21.187C19.2606 21.187 18.7666 20.666 18.7666 19.728C18.7726 19.5271 18.7906 19.3267 18.8206 19.128L18.9316 18.496L19.0136 17.973L19.7567 13.46H21.4077L21.2146 14.45H22.2617L22.0126 16.101H20.9666L20.5266 18.801C20.5078 18.8911 20.4987 18.983 20.4996 19.075C20.4996 19.433 20.6646 19.575 21.0776 19.575C21.2533 19.5722 21.4284 19.5534 21.6006 19.519L21.3817 20.967ZM26.7206 20.913C26.1474 21.0758 25.5545 21.1589 24.9586 21.16C24.5604 21.2086 24.1564 21.1659 23.7771 21.0352C23.3978 20.9045 23.0532 20.6893 22.7694 20.4057C22.4857 20.1221 22.2702 19.7777 22.1392 19.3985C22.0083 19.0193 21.9653 18.6152 22.0136 18.217C22.0136 15.932 23.2796 14.28 25.0406 14.28C25.356 14.2625 25.6714 14.3131 25.9654 14.4284C26.2595 14.5437 26.5252 14.7209 26.7447 14.948C26.9641 15.1751 27.1321 15.4469 27.2372 15.7447C27.3423 16.0425 27.382 16.3595 27.3536 16.674C27.3473 17.2207 27.2826 17.7651 27.1606 18.298H23.7196C23.7002 18.3697 23.6911 18.4438 23.6927 18.518C23.6927 19.288 24.2157 19.673 25.2057 19.673C25.8254 19.6717 26.4368 19.5308 26.9947 19.261L26.7206 20.913ZM25.7017 16.978V16.647C25.7159 16.534 25.7046 16.4192 25.6686 16.3111C25.6326 16.203 25.5728 16.1044 25.4937 16.0225C25.4145 15.9405 25.318 15.8773 25.2112 15.8376C25.1044 15.7979 24.9901 15.7827 24.8766 15.793C24.3266 15.793 23.9406 16.205 23.7766 16.978H25.7017ZM8.17264 21.051H6.46463L7.45663 14.803L5.22763 21.051H4.04465L3.90665 14.831L2.86066 21.051H1.18164L2.52963 12.932H5.03464L5.08865 17.941L6.76764 12.932H9.51965L8.17264 21.051ZM12.3276 18.106C12.2185 18.0856 12.1076 18.0765 11.9966 18.079C11.0066 18.079 10.5107 18.464 10.5107 19.069C10.5016 19.157 10.5113 19.2459 10.5392 19.3299C10.5671 19.4139 10.6125 19.491 10.6725 19.556C10.7324 19.6211 10.8055 19.6726 10.8869 19.7073C10.9683 19.7419 11.0562 19.7589 11.1447 19.757C11.9697 19.76 12.2996 19.067 12.3276 18.108V18.106ZM13.7047 21.051H12.2187L12.2456 20.362C12.0375 20.6408 11.7608 20.861 11.4424 21.0012C11.124 21.1413 10.7748 21.1967 10.4286 21.162C10.2074 21.146 9.99148 21.0861 9.79364 20.9857C9.5958 20.8853 9.41999 20.7464 9.27649 20.5772C9.13299 20.408 9.02468 20.2119 8.95792 20.0003C8.89115 19.7887 8.86724 19.5659 8.88763 19.345C8.89091 19.0559 8.93675 18.7688 9.02365 18.493C9.29965 17.474 10.3167 16.842 11.8867 16.814C12.0797 16.814 12.3806 16.814 12.6566 16.841C12.6972 16.698 12.7157 16.5496 12.7116 16.401C12.7116 15.959 12.3536 15.821 11.5566 15.821C11.0706 15.8185 10.5872 15.8935 10.1246 16.043L9.87766 16.098L9.76663 16.125L10.0157 14.639C10.6622 14.4142 11.3403 14.2934 12.0247 14.281C13.5087 14.281 14.3087 14.97 14.3087 16.236C14.3258 16.6688 14.2976 17.1021 14.2246 17.529L13.8396 19.894L13.7856 20.308L13.7586 20.639L13.7317 20.859L13.7047 21.051ZM35.0306 14.5C35.5731 14.5186 36.1027 14.6704 36.5726 14.942L36.8727 13.18C36.7292 13.1169 36.5823 13.0618 36.4326 13.015L35.7437 12.822C34.8481 12.6553 33.9239 12.7415 33.0746 13.071C32.6979 13.318 32.3553 13.6136 32.0556 13.95L31.8356 13.895L30.0757 15.134L30.1577 14.445H28.3406L27.2686 21.045H29.0016L29.6336 17.497C29.6336 17.497 29.8826 16.997 29.9916 16.836C30.0984 16.685 30.2449 16.5666 30.4149 16.4938C30.5849 16.4211 30.7717 16.3969 30.9547 16.424H31.0927C31.0352 16.8428 31.0078 17.2652 31.0107 17.688C31.0107 19.835 32.2206 21.188 34.0916 21.188C34.6044 21.1848 35.1142 21.1108 35.6067 20.968L35.9066 19.097C35.4647 19.3633 34.9631 19.5146 34.4476 19.537C33.4306 19.537 32.8257 18.767 32.8257 17.557C32.8287 15.767 33.7366 14.502 35.0306 14.502V14.5ZM49.6447 12.932L49.2596 15.243C49.1065 14.9601 48.8797 14.724 48.6034 14.5594C48.327 14.3948 48.0113 14.3079 47.6896 14.308C47.2058 14.3226 46.7357 14.4719 46.3322 14.7393C45.9287 15.0066 45.6078 15.3812 45.4056 15.821V15.794L44.3056 15.135L44.4167 14.446H42.5726L41.5266 21.052H43.2326L43.8106 17.502C43.8106 17.502 44.2527 17.002 44.3607 16.841C44.453 16.7223 44.5693 16.6242 44.7019 16.5533C44.8346 16.4823 44.9806 16.44 45.1306 16.429C44.9234 17.059 44.822 17.7189 44.8307 18.382C44.8307 20.033 45.6826 21.134 46.9486 21.134C47.2544 21.1408 47.5576 21.0772 47.835 20.9484C48.1124 20.8196 48.3565 20.6289 48.5486 20.391L48.4646 21.052H50.0887L51.4096 12.933L49.6447 12.932ZM47.5247 19.481C46.9467 19.481 46.6457 19.041 46.6457 18.188C46.6457 16.894 47.1957 15.959 47.9937 15.959C48.5937 15.959 48.9016 16.428 48.9016 17.252C48.9006 18.575 48.3507 19.484 47.5237 19.484L47.5247 19.481ZM39.5726 18.106C39.4635 18.0856 39.3526 18.0765 39.2416 18.079C38.2496 18.079 37.7556 18.464 37.7556 19.069C37.7464 19.1569 37.756 19.2457 37.7837 19.3296C37.8114 19.4135 37.8567 19.4905 37.9164 19.5556C37.9762 19.6207 38.0491 19.6722 38.1304 19.707C38.2116 19.7417 38.2993 19.7588 38.3876 19.757C39.2146 19.76 39.5446 19.067 39.5726 18.108V18.106ZM40.9476 21.051H39.4346L39.4926 20.367C39.2849 20.6456 39.0085 20.8657 38.6905 21.0059C38.3724 21.1461 38.0235 21.2016 37.6776 21.167C37.4516 21.1577 37.2297 21.1027 37.0255 21.0053C36.8213 20.9079 36.6389 20.7702 36.4894 20.6004C36.3399 20.4306 36.2263 20.2322 36.1555 20.0173C36.0848 19.8024 36.0583 19.5754 36.0776 19.35C36.0776 17.782 37.2607 16.819 39.1317 16.819C39.3796 16.8154 39.6276 16.8244 39.8746 16.846C39.9226 16.7039 39.9508 16.5558 39.9586 16.406C39.9586 15.964 39.6006 15.828 38.7756 15.828C38.2898 15.8271 37.8068 15.9013 37.3437 16.048L37.1237 16.103L37.0126 16.13L37.2596 14.644C37.9063 14.4195 38.5843 14.2987 39.2686 14.286C40.7546 14.286 41.5247 14.975 41.5247 16.241C41.5571 16.6737 41.5295 17.1088 41.4427 17.534L41.0847 19.901L41.0306 20.313L40.9746 20.644L40.9476 20.864V21.057V21.051ZM17.3087 15.851C17.7418 15.8533 18.1742 15.8897 18.6017 15.96L18.8486 14.419C18.3546 14.365 17.6936 14.281 17.3076 14.281C15.3816 14.281 14.7477 15.328 14.7477 16.537C14.7411 16.9383 14.8632 17.3312 15.096 17.6581C15.3289 17.9851 15.6603 18.2289 16.0417 18.354C16.7307 18.685 16.8416 18.739 16.8416 19.043C16.8416 19.455 16.4856 19.702 15.8246 19.702C15.2894 19.7026 14.7581 19.6098 14.2546 19.428L14.0616 20.941L14.0887 20.968L14.4196 21.023C14.5654 21.0585 14.713 21.0866 14.8616 21.107C15.2736 21.134 15.6317 21.161 15.8517 21.161C17.7777 21.161 18.5767 20.418 18.5767 18.961C18.5888 18.5554 18.4693 18.1568 18.236 17.8248C18.0028 17.4927 17.6683 17.2452 17.2827 17.119C16.5397 16.788 16.4557 16.734 16.4557 16.43C16.4557 16.126 16.7857 15.852 17.3087 15.852V15.851Z" fill="#082C5C"/>
<path fill-rule="evenodd" clip-rule="evenodd" d="M37.3481 12.6576L37.0481 14.4196C36.5784 14.1486 36.0492 13.9975 35.5071 13.9796C34.2131 13.9796 33.3071 15.2437 33.3071 17.0337C33.3071 18.2727 33.9072 19.0156 34.9312 19.0156C35.4417 18.9901 35.9398 18.8493 36.3882 18.6037L36.0881 20.4456C35.5972 20.596 35.0883 20.6797 34.5751 20.6946C32.7041 20.6946 31.5461 19.3447 31.5461 17.1717C31.5461 14.2807 33.1461 12.2446 35.4261 12.2446C35.6952 12.2399 35.9639 12.2681 36.2261 12.3286L36.9151 12.4936C37.1371 12.5756 37.1911 12.6026 37.3571 12.6566L37.3481 12.6576ZM31.7891 13.8697H31.6241C31.0461 13.8697 30.7161 14.1456 30.1921 14.9436L30.3571 13.9246H28.7871L27.7151 20.5307H29.4482C30.0822 16.4847 30.2481 15.7967 31.0721 15.7967H31.1831C31.3097 15.1348 31.5317 14.4948 31.8421 13.8966L31.7891 13.8697ZM21.8261 20.4456C21.4302 20.5924 21.0114 20.6675 20.5891 20.6676C20.3967 20.6854 20.2026 20.6592 20.0218 20.5909C19.8409 20.5226 19.678 20.414 19.5453 20.2735C19.4126 20.1329 19.3137 19.964 19.256 19.7795C19.1982 19.595 19.1832 19.3998 19.2121 19.2086C19.2182 19.015 19.2366 18.8219 19.2672 18.6306L19.3781 17.9696L19.4621 17.4486L20.2031 12.9336H21.9111L21.7181 13.9236H22.5971L22.3771 15.5476H21.4961L21.0291 18.2996C21.008 18.39 20.9989 18.4829 21.0021 18.5756C21.0021 18.9046 21.1671 19.0426 21.5801 19.0426C21.7379 19.0567 21.8969 19.038 22.0471 18.9876L21.8271 20.4446L21.8261 20.4456ZM15.1951 16.0166C15.19 16.4206 15.3119 16.816 15.5438 17.1469C15.7756 17.4778 16.1057 17.7275 16.4872 17.8606C17.2032 18.1896 17.3141 18.3006 17.3141 18.5746C17.3141 18.9886 17.0141 19.1817 16.3221 19.1817C15.7988 19.1775 15.2791 19.0935 14.7811 18.9326L14.5341 20.4456L14.6161 20.4746L14.9161 20.5296C15.0688 20.568 15.2258 20.5861 15.3831 20.5836C15.6933 20.6259 16.0062 20.6445 16.3192 20.6396C18.1362 20.6396 18.9901 19.9507 18.9901 18.4397C19.0163 18.0423 18.9121 17.6472 18.6933 17.3144C18.4746 16.9816 18.1533 16.7292 17.7781 16.5956C17.0351 16.2646 16.9531 16.1837 16.9531 15.8797C16.9531 15.5217 17.2531 15.3566 17.8071 15.3566C18.2208 15.3601 18.6338 15.3881 19.0441 15.4406L19.2932 13.9276C18.7925 13.8426 18.2859 13.7965 17.7781 13.7896C15.8481 13.7886 15.1621 14.8057 15.1911 16.0177L15.1951 16.0166ZM50.5302 20.5296H48.9061L48.9881 19.8957C48.7913 20.1249 48.5463 20.308 48.2706 20.4317C47.9949 20.5555 47.6953 20.6169 47.3931 20.6117C46.1271 20.6117 45.3001 19.5396 45.3001 17.8886C45.3001 15.6886 46.5931 13.8156 48.1071 13.8156C48.4365 13.8173 48.7602 13.9013 49.0489 14.0598C49.3376 14.2184 49.582 14.4466 49.7601 14.7237L50.1451 12.4106H51.8481L50.5271 20.5296H50.5302ZM47.9971 18.9886C48.7971 18.9886 49.3451 18.0526 49.3451 16.7596C49.3451 15.9056 49.0451 15.4596 48.4371 15.4596C47.6671 15.4596 47.0891 16.3676 47.0891 17.6596C47.0865 18.5456 47.3881 18.989 47.9941 18.9896L47.9971 18.9886ZM27.1101 20.3886C26.5325 20.5759 25.9284 20.6691 25.3211 20.6646C23.3931 20.6646 22.4031 19.6456 22.4031 17.6926C22.4031 15.4346 23.6691 13.7556 25.4031 13.7556C25.7202 13.7361 26.0377 13.7851 26.3341 13.8993C26.6305 14.0135 26.8988 14.1901 27.1208 14.4173C27.3429 14.6444 27.5134 14.9167 27.6208 15.2157C27.7281 15.5146 27.7699 15.8331 27.7431 16.1496C27.7384 16.7069 27.6645 17.2615 27.5231 17.8006H24.1091C24.0887 17.8628 24.0795 17.9282 24.0822 17.9936C24.0822 18.7656 24.6051 19.1507 25.5951 19.1507C26.2164 19.1619 26.8309 19.0197 27.3841 18.7367L27.1101 20.3886ZM26.1451 16.4536V16.1256C26.1594 16.0127 26.1481 15.8979 26.1121 15.7899C26.0761 15.6819 26.0163 15.5834 25.9371 15.5016C25.8579 15.4198 25.7614 15.3569 25.6546 15.3174C25.5478 15.2779 25.4335 15.263 25.3201 15.2736C24.7701 15.2736 24.3841 15.6856 24.2201 16.4566L26.1451 16.4536ZM8.61313 20.5257H6.90714L7.89713 14.2776L5.66815 20.5257H4.48514L4.34714 14.3346L3.30212 20.5257H1.70215L3.05014 12.4066H5.52814L5.61014 17.4426L7.26114 12.4066H9.96115L8.61313 20.5257ZM12.8792 17.5806C12.7142 17.5806 12.6321 17.5536 12.4941 17.5536C11.5311 17.5536 11.0351 17.9116 11.0351 18.5706C11.0231 18.655 11.0299 18.741 11.0549 18.8225C11.08 18.9039 11.1226 18.9789 11.1799 19.042C11.2372 19.1051 11.3077 19.1549 11.3864 19.1876C11.4651 19.2204 11.55 19.2354 11.6351 19.2316C12.3561 19.2366 12.8482 18.5746 12.8792 17.5846V17.5806ZM14.1481 20.5257H12.7161L12.7431 19.8366C12.5273 20.1066 12.2493 20.3204 11.9329 20.4597C11.6165 20.599 11.2711 20.6597 10.9261 20.6366C10.7018 20.6337 10.4806 20.5836 10.2769 20.4897C10.0732 20.3958 9.89154 20.2601 9.74368 20.0914C9.59582 19.9227 9.48509 19.7248 9.41867 19.5105C9.35225 19.2962 9.33161 19.0704 9.35812 18.8476C9.35812 17.2236 10.4581 16.2876 12.3851 16.2876C12.5781 16.2876 12.8271 16.3146 13.1011 16.3426C13.1395 16.2087 13.1577 16.0699 13.1552 15.9306C13.1552 15.4906 12.8551 15.3306 12.0551 15.3306C11.5734 15.3243 11.0928 15.3797 10.6252 15.4956L10.3761 15.5777L10.2112 15.6066L10.4601 14.1206C11.1272 13.9057 11.8233 13.7941 12.5241 13.7896C14.0101 13.7896 14.8081 14.4487 14.8081 15.7157C14.7978 16.159 14.7516 16.6007 14.6701 17.0366L14.2851 19.3766L14.2301 19.7887L14.2031 20.1196L14.1761 20.3667L14.1491 20.5316L14.1481 20.5257ZM40.1271 17.5806C39.9341 17.5806 39.8511 17.5536 39.7421 17.5536C38.7501 17.5536 38.2542 17.9116 38.2542 18.5706C38.2451 18.6573 38.2551 18.745 38.2834 18.8274C38.3116 18.9099 38.3576 18.9852 38.4179 19.0481C38.4783 19.111 38.5516 19.16 38.6328 19.1917C38.714 19.2234 38.8011 19.2371 38.8882 19.2316C39.5772 19.2316 40.0981 18.5706 40.1271 17.5806ZM41.3931 20.5257H39.9612L39.9881 19.8366C39.7721 20.1065 39.4941 20.3202 39.1778 20.4595C38.8614 20.5988 38.5161 20.6595 38.1711 20.6366C37.9468 20.6337 37.7257 20.5836 37.5219 20.4897C37.3182 20.3958 37.1365 20.2601 36.9887 20.0914C36.8408 19.9227 36.7301 19.7248 36.6637 19.5105C36.5972 19.2962 36.5766 19.0704 36.6031 18.8476C36.6031 17.2236 37.7031 16.2876 39.6301 16.2876C39.8231 16.2876 40.0702 16.3146 40.3192 16.3426C40.3629 16.2091 40.3904 16.0707 40.4012 15.9306C40.4012 15.4906 40.1011 15.3306 39.3011 15.3306C38.8105 15.3244 38.321 15.3798 37.8441 15.4956L37.6221 15.5777L37.4572 15.6066L37.7061 14.1206C38.3732 13.9057 39.0693 13.7941 39.7701 13.7896C41.2561 13.7896 42.0262 14.4487 42.0262 15.7157C42.0301 16.1598 41.9838 16.6029 41.8882 17.0366L41.5302 19.3766L41.4761 19.7887L41.4211 20.1196L41.3941 20.3667V20.5316L41.3931 20.5257ZM46.0151 13.8656H45.8481C45.2721 13.8656 44.9422 14.1417 44.4182 14.9397L44.5831 13.9206H43.0132L41.9671 20.5266H43.6751C44.3071 16.4806 44.4751 15.7926 45.2991 15.7926H45.4081C45.5345 15.1304 45.7572 14.4903 46.0692 13.8927L46.0151 13.8656Z" fill="white"/>
</svg>
