<svg width="55" height="17" viewBox="0 0 55 17" fill="none" xmlns="http://www.w3.org/2000/svg">
<path d="M10.4473 8.71751L8.93655 1.47011C8.82708 1.04993 8.5696 0.683384 8.21147 0.437869C7.85333 0.192353 7.41861 0.0843784 6.98722 0.133778H0.0610828L0 0.464906C5.39465 1.77267 8.96315 4.92825 10.4473 8.71751Z" fill="#F68A0A"/>
<path d="M26.4976 0.279297H22.0224L19.2275 16.683H23.6958L26.4976 0.279297Z" fill="#004A89"/>
<path d="M13.175 16.6672L20.2135 0.291016H15.4771L11.0985 11.4785L10.6304 9.78931C9.21006 7.01084 7.07214 4.663 4.43848 2.98933L8.44062 16.6701L13.175 16.6672Z" fill="#004A89"/>
<path d="M39.2633 11.3208C39.279 9.45721 38.0807 8.03709 35.5066 6.86434C33.9406 6.10748 32.9856 5.60092 32.9974 4.83222C32.9974 4.15321 33.8065 3.42296 35.5598 3.42296C36.7063 3.39738 37.8456 3.61153 38.9046 4.05171L39.3086 4.23797L39.9167 0.684248C38.6307 0.221892 37.2732 -0.00964667 35.9066 0.000307843C31.4896 0.000307843 28.3794 2.22163 28.3498 5.41171C28.3232 7.77002 30.5731 9.08272 32.2702 9.86817C34.0106 10.6694 34.593 11.1828 34.5821 11.9003C34.5703 13.0011 33.1965 13.5007 31.9104 13.5007C30.4583 13.5437 29.0161 13.2489 27.6974 12.6394L27.1258 12.3773L26.4971 16.0542C28.091 16.642 29.778 16.9368 31.4768 16.9244C36.1727 16.9234 39.2278 14.7287 39.2633 11.3208Z" fill="#004A89"/>
<path d="M44.5794 14.2239L50.3052 14.2298C50.4412 14.8014 50.8492 16.6877 50.8492 16.6877H54.9991L51.3784 0.296768H47.9292C47.4438 0.233884 46.9513 0.332768 46.5278 0.578091C46.1043 0.823414 45.7735 1.20151 45.5866 1.65382L38.9463 16.6877H43.6452C43.6452 16.6877 44.405 14.6674 44.5794 14.2239ZM47.6443 6.27978C47.6217 6.32413 48.0139 5.33072 48.2357 4.71379L48.5382 6.12799C48.5382 6.12799 49.3916 10.0464 49.571 10.8643H45.8665C46.2351 9.92218 47.6404 6.28074 47.6404 6.28074L47.6443 6.27978Z" fill="#004A89"/>
</svg>
